# xmcd CD database file
#
# Track frame offsets:
#	150
#	22189
#	58916
#	71997
#	85669
#	106942
#	129132
#	152976
#	175536
#	193741
#	212797
#	236768
#	256893
#	286508
#	305738
#
# Disc length: 4310 seconds
#
# Revision: 0
# Processed by: cddbd v1.5.2PL0 Copyright (c) Steve Scherf et al.
# Submitted via: CDex 1.70beta2
#
DISCID=d410d40f
DTITLE=Various Artist - Pepper Shakers
DYEAR=2011
DGENRE=Blues
TTITLE0=Earl Thomas - Standing In The Rain
TTITLE1=The Todd Wolfe Band - Cold Black Night
TTITLE2=Greg Koch Trio - Agree To Disagree
TTITLE3=Cologne Blues Club - Cologne City Man
TTITLE4=Timo Gross - Voodoo Priest
TTITLE5=Shanna Waterstown - You Let Me Down
TTITLE6=Mark Selby - Blue On Black
TTITLE7=Mighty Orq - Falling Down
TTITLE8=Rudy Rotta - Lady
TTITLE9=Henrik Freischlader - Keep Playin'
TTITLE10=Innes Sibun - I Want You Back
TTITLE11=Get The Cat - Papa Don't Play The Blues
TTITLE12=Carl Verheyen Band feat. Joe Bonamassa - Highway 27
TTITLE13=John Campbelljohn - Autobahn John
TTITLE14=Harmonicana - Sonny Bailey
EXTD=YEAR: 2011
EXTT0=
EXTT1=
EXTT2=
EXTT3=
EXTT4=
EXTT5=
EXTT6=
EXTT7=
EXTT8=
EXTT9=
EXTT10=
EXTT11=
EXTT12=
EXTT13=
EXTT14=
PLAYORDER=
